<?xml version="1.0" standalone="no"?><!DOCTYPE svg PUBLIC "-//W3C//DTD SVG 1.1//EN" "http://www.w3.org/Graphics/SVG/1.1/DTD/svg11.dtd"><svg t="1610255122134" class="icon" viewBox="0 0 1024 1024" version="1.1" xmlns="http://www.w3.org/2000/svg" p-id="3722" xmlns:xlink="http://www.w3.org/1999/xlink" width="200" height="200"><defs><style type="text/css"></style></defs><path d="M853.333333 661.333333H373.333333c-10.666667 0-19.2-6.4-21.333333-14.933333l-98.133333-373.333333c0-6.4 4.266667-10.666667 10.666666-10.666667H896c25.6 0 44.8 21.333333 40.533333 46.933333l-42.666666 315.733334c-2.133333 21.333333-19.2 36.266667-40.533334 36.266666z" fill="#24AA7D" p-id="3723"></path><path d="M853.333333 682.666667H373.333333c-19.2 0-34.133333-12.8-42.666666-27.733334v-2.133333L232.533333 277.333333c-2.133333-8.533333 2.133333-17.066667 8.533334-25.6 6.4-6.4 14.933333-10.666667 23.466666-10.666666H896c19.2 0 36.266667 8.533333 46.933333 21.333333 12.8 12.8 17.066667 32 14.933334 49.066667l-42.666667 315.733333c-2.133333 32-29.866667 55.466667-61.866667 55.466667z m-482.133333-44.8l2.133333 2.133333H853.333333c10.666667 0 19.2-8.533333 21.333334-17.066667l42.666666-315.733333c0-6.4 0-10.666667-4.266666-17.066667-4.266667-4.266667-8.533333-6.4-14.933334-6.4H277.333333l93.866667 354.133334z" fill="#24AA7D" p-id="3724"></path><path d="M488.533333 601.6c-10.666667 0-19.2-6.4-21.333333-17.066667l-46.933333-215.466666c-2.133333-10.666667 4.266667-23.466667 17.066666-25.6 10.666667-2.133333 23.466667 4.266667 25.6 17.066666L509.866667 576c2.133333 10.666667-4.266667 23.466667-17.066667 25.6h-4.266667zM618.666667 605.866667c-12.8 0-21.333333-8.533333-21.333334-21.333334V362.666667c0-12.8 8.533333-21.333333 21.333334-21.333334s21.333333 8.533333 21.333333 21.333334v221.866666c0 10.666667-10.666667 21.333333-21.333333 21.333334zM746.666667 601.6h-4.266667c-10.666667-2.133333-19.2-12.8-17.066667-25.6l44.8-215.466667c2.133333-10.666667 12.8-19.2 25.6-17.066666 10.666667 2.133333 19.2 12.8 17.066667 25.6L768 584.533333c-2.133333 10.666667-10.666667 17.066667-21.333333 17.066667z" fill="#FCFCFC" p-id="3725"></path><path d="M341.333333 793.6m-61.866666 0a61.866667 61.866667 0 1 0 123.733333 0 61.866667 61.866667 0 1 0-123.733333 0Z" fill="#24AA7D" p-id="3726"></path><path d="M341.333333 874.666667c-44.8 0-83.2-36.266667-83.2-83.2s36.266667-83.2 83.2-83.2c44.8 0 83.2 36.266667 83.2 83.2S388.266667 874.666667 341.333333 874.666667z m0-121.6c-21.333333 0-40.533333 17.066667-40.533333 40.533333S320 832 341.333333 832s40.533333-17.066667 40.533334-40.533333-17.066667-38.4-40.533334-38.4z" fill="#24AA7D" p-id="3727"></path><path d="M853.333333 793.6m-61.866666 0a61.866667 61.866667 0 1 0 123.733333 0 61.866667 61.866667 0 1 0-123.733333 0Z" fill="#24AA7D" p-id="3728"></path><path d="M853.333333 874.666667c-44.8 0-83.2-36.266667-83.2-83.2s36.266667-83.2 83.2-83.2c44.8 0 83.2 36.266667 83.2 83.2S898.133333 874.666667 853.333333 874.666667z m0-121.6c-21.333333 0-40.533333 17.066667-40.533333 40.533333S832 832 853.333333 832s40.533333-17.066667 40.533334-40.533333-19.2-38.4-40.533334-38.4z" fill="#24AA7D" p-id="3729"></path><path d="M247.466667 266.666667l-149.333334-151.466667M247.466667 288c-6.4 0-10.666667-2.133333-14.933334-6.4l-149.333333-151.466667c-8.533333-8.533333-8.533333-21.333333 0-29.866666s21.333333-8.533333 29.866667 0l151.466666 151.466666c8.533333 8.533333 8.533333 21.333333 0 29.866667-6.4 4.266667-10.666667 6.4-17.066666 6.4z" fill="#24AA7D" p-id="3730"></path><path d="M21.333333 136.533333c-10.666667 0-21.333333-8.533333-21.333333-21.333333s8.533333-21.333333 21.333333-21.333333l72.533334-2.133334c10.666667 0 21.333333 8.533333 21.333333 21.333334s-8.533333 21.333333-21.333333 21.333333L21.333333 136.533333z" fill="#24AA7D" p-id="3731"></path></svg>