<?xml version="1.0" standalone="no"?><!DOCTYPE svg PUBLIC "-//W3C//DTD SVG 1.1//EN" "http://www.w3.org/Graphics/SVG/1.1/DTD/svg11.dtd"><svg t="1610255153821" class="icon" viewBox="0 0 1024 1024" version="1.1" xmlns="http://www.w3.org/2000/svg" p-id="3886" xmlns:xlink="http://www.w3.org/1999/xlink" width="200" height="200"><defs><style type="text/css"></style></defs><path d="M881.4 46.8H141.6C96.7 46.8 60 83.5 60 128.4v739.8c0 44.9 36.7 81.6 81.6 81.6h739.8c44.9 0 81.6-36.7 81.6-81.6V128.4c0-44.9-36.8-81.6-81.6-81.6z" fill="#40A32E" p-id="3887"></path><path d="M511.5 865.9c-49.6 0-97.8-9.7-143.1-28.9-43.8-18.5-83.1-45-116.8-78.8-33.8-33.8-60.3-73.1-78.8-116.8-19.2-45.3-28.9-93.5-28.9-143.1s9.7-97.8 28.9-143.1c18.5-43.8 45-83.1 78.8-116.8 33.8-33.8 73.1-60.3 116.8-78.8 45.3-19.2 93.5-28.9 143.1-28.9s97.8 9.7 143.1 28.9c43.8 18.5 83.1 45 116.8 78.8 33.8 33.8 60.3 73.1 78.8 116.8 19.2 45.3 28.9 93.5 28.9 143.1s-9.7 97.8-28.9 143.1c-18.5 43.8-45 83.1-78.8 116.8-33.8 33.8-73.1 60.3-116.8 78.8-45.4 19.2-93.5 28.9-143.1 28.9z m0-715.2c-191.7 0-347.6 155.9-347.6 347.6s155.9 347.6 347.6 347.6S859.1 690 859.1 498.3s-156-347.6-347.6-347.6z" fill="#FFFFFF" p-id="3888"></path><path d="M520.6 642.7c-3.2 0-6.4-1.6-8.4-4.4l-93-138.4c-3.1-4.6-1.9-10.9 2.7-14 4.6-3.1 10.9-1.9 14 2.7l93 138.4c3.1 4.6 1.9 10.9-2.7 14-1.7 1.1-3.7 1.7-5.6 1.7z" fill="#FFFFFF" p-id="3889"></path><path d="M520.6 642.7c-1.9 0-3.9-0.6-5.6-1.7-4.6-3.1-5.8-9.4-2.7-14l93-138.4c3.1-4.6 9.4-5.8 14-2.7 4.6 3.1 5.8 9.4 2.7 14l-93 138.4c-2 2.8-5.2 4.4-8.4 4.4z" fill="#FFFFFF" p-id="3890"></path><path d="M520.6 642.7c-5.4 0-9.8-4.3-10-9.7l-11.8-311.4c-0.2-5.6 4.1-10.2 9.7-10.4 5.6-0.2 10.2 4.1 10.4 9.7l11.8 311.4c0.2 5.6-4.1 10.2-9.7 10.4h-0.4zM611 729.4H430.2c-7 0-12.7-5.7-12.7-12.7s5.7-12.7 12.7-12.7H611c7 0 12.7 5.7 12.7 12.7s-5.7 12.7-12.7 12.7z" fill="#FFFFFF" p-id="3891"></path></svg>