<?xml version="1.0" standalone="no"?><!DOCTYPE svg PUBLIC "-//W3C//DTD SVG 1.1//EN" "http://www.w3.org/Graphics/SVG/1.1/DTD/svg11.dtd"><svg t="1610256396340" class="icon" viewBox="0 0 1024 1024" version="1.1" xmlns="http://www.w3.org/2000/svg" p-id="8111" xmlns:xlink="http://www.w3.org/1999/xlink" width="200" height="200"><defs><style type="text/css"></style></defs><path d="M708.266667 1024H315.733333c-29.866667 0-55.466667-25.6-55.466666-55.466667V59.733333C260.266667 25.6 285.866667 0 315.733333 0h392.533334c29.866667 0 55.466667 25.6 55.466666 55.466667v908.8c0 34.133333-25.6 59.733333-55.466666 59.733333z" fill="#978CFF" p-id="8112"></path><path d="M729.6 85.333333v789.333334c0 25.6-21.333333 46.933333-46.933333 46.933333H345.6c-25.6 0-46.933333-21.333333-46.933333-46.933333V85.333333C298.666667 59.733333 320 38.4 345.6 38.4H682.666667c21.333333 0 42.666667 17.066667 46.933333 34.133333V85.333333z" fill="#EFF0FC" p-id="8113"></path><path d="M512 968.533333m-21.333333 0a21.333333 21.333333 0 1 0 42.666666 0 21.333333 21.333333 0 1 0-42.666666 0Z" fill="#4B369D" p-id="8114"></path><path d="M558.933333 25.6H469.333333c-4.266667 0-4.266667-4.266667-4.266666-4.266667 0-4.266667 4.266667-4.266667 4.266666-4.266666h89.6c4.266667 0 4.266667 4.266667 4.266667 4.266666s0 4.266667-4.266667 4.266667zM729.6 85.333333v789.333334c0 25.6-21.333333 46.933333-46.933333 46.933333H345.6c-25.6 0-46.933333-21.333333-46.933333-46.933333V443.733333l426.666666-371.2c4.266667 4.266667 4.266667 8.533333 4.266667 12.8z" fill="#E3E5FC" p-id="8115"></path><path d="M622.933333 772.266667H396.8c-12.8 0-25.6-12.8-25.6-25.6s12.8-25.6 25.6-25.6h230.4c12.8 0 25.6 12.8 25.6 25.6-4.266667 12.8-12.8 25.6-29.866667 25.6zM622.933333 857.6H396.8c-12.8 0-25.6-12.8-25.6-25.6s12.8-25.6 25.6-25.6h230.4c12.8 0 25.6 12.8 25.6 25.6-4.266667 12.8-12.8 25.6-29.866667 25.6z" fill="#FFFFFF" p-id="8116"></path></svg>