<?xml version="1.0" standalone="no"?><!DOCTYPE svg PUBLIC "-//W3C//DTD SVG 1.1//EN" "http://www.w3.org/Graphics/SVG/1.1/DTD/svg11.dtd"><svg t="1610256278408" class="icon" viewBox="0 0 1024 1024" version="1.1" xmlns="http://www.w3.org/2000/svg" p-id="6140" xmlns:xlink="http://www.w3.org/1999/xlink" width="200" height="200"><defs><style type="text/css"></style></defs><path d="M768.9 784.8H252.8c-6.6 0-12-5.4-12-12V194.2c0-6.6 5.4-12 12-12h516.1c6.6 0 12 5.4 12 12v578.6c0 6.6-5.4 12-12 12z" fill="#83FCE5" p-id="6141"></path><path d="M240.8 177.2h553.9v10H240.8z" fill="#3983FD" p-id="6142"></path><path d="M729.7 81c11.9 0 23.2 4.7 31.8 13.2 8.5 8.5 13.2 19.8 13.2 31.8v765.3c0 11.9-4.7 23.2-13.2 31.8-8.5 8.5-19.8 13.2-31.8 13.2H295.1c-11.9 0-23.2-4.7-31.8-13.2-8.5-8.5-13.2-19.8-13.2-31.8V126c0-11.9 4.7-23.2 13.2-31.8 8.5-8.5 19.8-13.2 31.8-13.2h434.6m0-20H295.1c-35.8 0-65 29.2-65 65v765.3c0 35.8 29.3 65 65 65h434.6c35.8 0 65-29.3 65-65V126c0-35.7-29.2-65-65-65z" fill="#3983FD" p-id="6143"></path><path d="M510.3 854.4m-30 0a30 30 0 1 0 60 0 30 30 0 1 0-60 0Z" fill="#3983FD" p-id="6144"></path><path d="M240.8 779.8h553.9v10H240.8z" fill="#3983FD" p-id="6145"></path></svg>