<?xml version="1.0" standalone="no"?><!DOCTYPE svg PUBLIC "-//W3C//DTD SVG 1.1//EN" "http://www.w3.org/Graphics/SVG/1.1/DTD/svg11.dtd"><svg t="1610201485226" class="icon" viewBox="0 0 1024 1024" version="1.1" xmlns="http://www.w3.org/2000/svg" p-id="3958" xmlns:xlink="http://www.w3.org/1999/xlink" width="200" height="200"><defs><style type="text/css"></style></defs><path d="M619.1 601.5l-50.8-7.4-22.8-46.1c-6.3-12.7-19.3-20.8-33.5-20.8s-27.2 8.1-33.5 20.8l-22.7 46.1-50.8 7.4c-14.1 2-25.7 11.9-30.1 25.4-4.4 13.5-0.7 28.4 9.5 38.3L421 701l-8.7 50.6c-2.4 14 3.4 28.2 14.9 36.5 6.5 4.7 14.2 7.1 22 7.1 5.9 0 11.9-1.4 17.4-4.3l45.5-23.9 45.5 23.9c12.6 6.6 27.8 5.5 39.3-2.9 11.5-8.4 17.3-22.5 14.8-36.5L603 701l36.8-35.9c10.2-9.9 13.9-24.8 9.5-38.3-4.5-13.4-16.2-23.3-30.2-25.3z m-93.6 88.6c-4.4-1.7-9-2.5-13.5-2.5s-9.2 0.8-13.5 2.5c0.5-9.3-2.5-18.5-8.4-25.8 9-2.4 16.9-8.1 21.9-15.9 5.1 7.9 12.9 13.6 21.9 15.9-5.9 7.3-8.9 16.5-8.4 25.8z" p-id="3959"></path><path d="M878.6 133.9c-2.4-39.3-35.2-70-74.6-70H219.9c-39.3 0-72.1 30.8-74.6 70L99 872.9c-1.3 20.5 6 40.8 20.1 55.8 14.1 15 33.9 23.6 54.5 23.6h676.8c20.5 0 40.4-8.6 54.5-23.6 14.1-15 21.4-35.3 20.1-55.8l-46.4-739z m-705 743.7l46.3-739H804l46.4 739H173.6z" p-id="3960"></path><path d="M705.2 220.8c-20.6 0-37.3 16.7-37.3 37.3 0 85.9-69.9 155.8-155.8 155.8S356.3 344 356.3 258.1c0-20.6-16.7-37.3-37.3-37.3s-37.3 16.7-37.3 37.3c0 127.1 103.4 230.5 230.5 230.5s230.5-103.4 230.5-230.5c-0.2-20.6-16.9-37.3-37.5-37.3z" p-id="3961"></path></svg>